<mxfile host="app.diagrams.net" modified="2023-07-01T17:04:29.933Z" agent="Mozilla/5.0 (Windows NT 10.0; Win64; x64) AppleWebKit/537.36 (KHTML, like Gecko) Chrome/114.0.0.0 Safari/537.36 Edg/114.0.1823.58" etag="vVu13cZt3b8m_KrN01mf" version="21.5.2" type="github">
  <diagram name="Страница 1" id="2an6NqsCK5NhZvgdKNnt">
    <mxGraphModel dx="1379" dy="796" grid="1" gridSize="10" guides="1" tooltips="1" connect="1" arrows="1" fold="1" page="1" pageScale="1" pageWidth="827" pageHeight="1169" math="0" shadow="0">
      <root>
        <mxCell id="0" />
        <mxCell id="1" parent="0" />
        <mxCell id="Jiz-GTdUpbyviJ1bqy-C-6" style="edgeStyle=orthogonalEdgeStyle;rounded=0;orthogonalLoop=1;jettySize=auto;html=1;exitX=1;exitY=0.5;exitDx=0;exitDy=0;entryX=0.5;entryY=0;entryDx=0;entryDy=0;" edge="1" parent="1" source="Jiz-GTdUpbyviJ1bqy-C-1" target="Jiz-GTdUpbyviJ1bqy-C-3">
          <mxGeometry relative="1" as="geometry">
            <Array as="points">
              <mxPoint x="320" y="210" />
              <mxPoint x="720" y="210" />
            </Array>
          </mxGeometry>
        </mxCell>
        <mxCell id="Jiz-GTdUpbyviJ1bqy-C-11" value="Создание" style="edgeLabel;html=1;align=center;verticalAlign=middle;resizable=0;points=[];" vertex="1" connectable="0" parent="Jiz-GTdUpbyviJ1bqy-C-6">
          <mxGeometry x="-0.0897" y="-2" relative="1" as="geometry">
            <mxPoint y="-12" as="offset" />
          </mxGeometry>
        </mxCell>
        <mxCell id="Jiz-GTdUpbyviJ1bqy-C-8" style="edgeStyle=orthogonalEdgeStyle;rounded=0;orthogonalLoop=1;jettySize=auto;html=1;exitX=0.5;exitY=1;exitDx=0;exitDy=0;entryX=0.035;entryY=-0.033;entryDx=0;entryDy=0;entryPerimeter=0;" edge="1" parent="1" source="Jiz-GTdUpbyviJ1bqy-C-1" target="Jiz-GTdUpbyviJ1bqy-C-2">
          <mxGeometry relative="1" as="geometry" />
        </mxCell>
        <mxCell id="Jiz-GTdUpbyviJ1bqy-C-13" value="Просмотр, создание, редактирование" style="edgeLabel;html=1;align=center;verticalAlign=middle;resizable=0;points=[];" vertex="1" connectable="0" parent="Jiz-GTdUpbyviJ1bqy-C-8">
          <mxGeometry x="-0.1667" y="3" relative="1" as="geometry">
            <mxPoint x="-30" y="-18" as="offset" />
          </mxGeometry>
        </mxCell>
        <mxCell id="Jiz-GTdUpbyviJ1bqy-C-45" style="edgeStyle=orthogonalEdgeStyle;rounded=0;orthogonalLoop=1;jettySize=auto;html=1;entryX=0.507;entryY=1.1;entryDx=0;entryDy=0;entryPerimeter=0;" edge="1" parent="1" source="Jiz-GTdUpbyviJ1bqy-C-1" target="Jiz-GTdUpbyviJ1bqy-C-43">
          <mxGeometry relative="1" as="geometry" />
        </mxCell>
        <mxCell id="Jiz-GTdUpbyviJ1bqy-C-1" value="Пользователь" style="rounded=0;whiteSpace=wrap;html=1;" vertex="1" parent="1">
          <mxGeometry x="230" y="130" width="90" height="40" as="geometry" />
        </mxCell>
        <mxCell id="Jiz-GTdUpbyviJ1bqy-C-2" value="Объявление:&lt;br&gt;категория&lt;br&gt;заголовок,&lt;br&gt;текст, &lt;br&gt;контент(рисунок, видео)" style="rounded=0;whiteSpace=wrap;html=1;" vertex="1" parent="1">
          <mxGeometry x="40" y="280" width="200" height="90" as="geometry" />
        </mxCell>
        <mxCell id="Jiz-GTdUpbyviJ1bqy-C-48" style="edgeStyle=orthogonalEdgeStyle;rounded=0;orthogonalLoop=1;jettySize=auto;html=1;entryX=0.75;entryY=1;entryDx=0;entryDy=0;" edge="1" parent="1" source="Jiz-GTdUpbyviJ1bqy-C-3" target="Jiz-GTdUpbyviJ1bqy-C-1">
          <mxGeometry relative="1" as="geometry" />
        </mxCell>
        <mxCell id="Jiz-GTdUpbyviJ1bqy-C-49" value="Уведомление автору по почте" style="edgeLabel;html=1;align=center;verticalAlign=middle;resizable=0;points=[];" vertex="1" connectable="0" parent="Jiz-GTdUpbyviJ1bqy-C-48">
          <mxGeometry x="-0.2353" y="3" relative="1" as="geometry">
            <mxPoint x="1" y="-13" as="offset" />
          </mxGeometry>
        </mxCell>
        <mxCell id="Jiz-GTdUpbyviJ1bqy-C-3" value="Отклик:&lt;br&gt;&amp;nbsp;текст" style="rounded=0;whiteSpace=wrap;html=1;" vertex="1" parent="1">
          <mxGeometry x="660" y="250" width="120" height="60" as="geometry" />
        </mxCell>
        <mxCell id="Jiz-GTdUpbyviJ1bqy-C-36" style="edgeStyle=orthogonalEdgeStyle;rounded=0;orthogonalLoop=1;jettySize=auto;html=1;" edge="1" parent="1" source="Jiz-GTdUpbyviJ1bqy-C-15" target="Jiz-GTdUpbyviJ1bqy-C-28">
          <mxGeometry relative="1" as="geometry" />
        </mxCell>
        <mxCell id="Jiz-GTdUpbyviJ1bqy-C-15" value="&lt;div&gt;&lt;span style=&quot;background-color: initial;&quot;&gt;- /advertisement&lt;/span&gt;&lt;br&gt;&lt;/div&gt;" style="text;html=1;align=center;verticalAlign=middle;resizable=0;points=[];autosize=1;strokeColor=none;fillColor=none;" vertex="1" parent="1">
          <mxGeometry x="60" y="390" width="110" height="30" as="geometry" />
        </mxCell>
        <mxCell id="Jiz-GTdUpbyviJ1bqy-C-41" style="edgeStyle=orthogonalEdgeStyle;rounded=0;orthogonalLoop=1;jettySize=auto;html=1;entryX=0.724;entryY=0.867;entryDx=0;entryDy=0;entryPerimeter=0;" edge="1" parent="1" source="Jiz-GTdUpbyviJ1bqy-C-16" target="Jiz-GTdUpbyviJ1bqy-C-31">
          <mxGeometry relative="1" as="geometry" />
        </mxCell>
        <mxCell id="Jiz-GTdUpbyviJ1bqy-C-16" value="- /responses/{user.id}/" style="text;html=1;align=center;verticalAlign=middle;resizable=0;points=[];autosize=1;strokeColor=none;fillColor=none;" vertex="1" parent="1">
          <mxGeometry x="50" y="560" width="140" height="30" as="geometry" />
        </mxCell>
        <mxCell id="Jiz-GTdUpbyviJ1bqy-C-38" style="edgeStyle=orthogonalEdgeStyle;rounded=0;orthogonalLoop=1;jettySize=auto;html=1;entryX=0.035;entryY=0.7;entryDx=0;entryDy=0;entryPerimeter=0;" edge="1" parent="1" source="Jiz-GTdUpbyviJ1bqy-C-17" target="Jiz-GTdUpbyviJ1bqy-C-31">
          <mxGeometry relative="1" as="geometry" />
        </mxCell>
        <mxCell id="Jiz-GTdUpbyviJ1bqy-C-17" value="&lt;br&gt;- ./advertisement/create" style="text;html=1;align=center;verticalAlign=middle;resizable=0;points=[];autosize=1;strokeColor=none;fillColor=none;" vertex="1" parent="1">
          <mxGeometry x="55" y="450" width="150" height="40" as="geometry" />
        </mxCell>
        <mxCell id="Jiz-GTdUpbyviJ1bqy-C-39" style="edgeStyle=orthogonalEdgeStyle;rounded=0;orthogonalLoop=1;jettySize=auto;html=1;" edge="1" parent="1" source="Jiz-GTdUpbyviJ1bqy-C-20" target="Jiz-GTdUpbyviJ1bqy-C-31">
          <mxGeometry relative="1" as="geometry" />
        </mxCell>
        <mxCell id="Jiz-GTdUpbyviJ1bqy-C-20" value="- /advertisement/edit/{id}/" style="text;html=1;align=center;verticalAlign=middle;resizable=0;points=[];autosize=1;strokeColor=none;fillColor=none;" vertex="1" parent="1">
          <mxGeometry x="50" y="500" width="160" height="30" as="geometry" />
        </mxCell>
        <mxCell id="Jiz-GTdUpbyviJ1bqy-C-42" style="edgeStyle=orthogonalEdgeStyle;rounded=0;orthogonalLoop=1;jettySize=auto;html=1;entryX=0.471;entryY=1.233;entryDx=0;entryDy=0;entryPerimeter=0;" edge="1" parent="1" source="Jiz-GTdUpbyviJ1bqy-C-25" target="Jiz-GTdUpbyviJ1bqy-C-31">
          <mxGeometry relative="1" as="geometry" />
        </mxCell>
        <mxCell id="Jiz-GTdUpbyviJ1bqy-C-25" value="- /responses/create" style="text;html=1;align=center;verticalAlign=middle;resizable=0;points=[];autosize=1;strokeColor=none;fillColor=none;" vertex="1" parent="1">
          <mxGeometry x="50" y="530" width="130" height="30" as="geometry" />
        </mxCell>
        <mxCell id="Jiz-GTdUpbyviJ1bqy-C-37" style="edgeStyle=orthogonalEdgeStyle;rounded=0;orthogonalLoop=1;jettySize=auto;html=1;" edge="1" parent="1" source="Jiz-GTdUpbyviJ1bqy-C-27" target="Jiz-GTdUpbyviJ1bqy-C-28">
          <mxGeometry relative="1" as="geometry" />
        </mxCell>
        <mxCell id="Jiz-GTdUpbyviJ1bqy-C-27" value="- /advertisement/{id}/" style="text;html=1;align=center;verticalAlign=middle;resizable=0;points=[];autosize=1;strokeColor=none;fillColor=none;" vertex="1" parent="1">
          <mxGeometry x="55" y="430" width="130" height="30" as="geometry" />
        </mxCell>
        <mxCell id="Jiz-GTdUpbyviJ1bqy-C-28" value="Доступно всем" style="text;html=1;align=center;verticalAlign=middle;resizable=0;points=[];autosize=1;strokeColor=none;fillColor=none;" vertex="1" parent="1">
          <mxGeometry x="650" y="400" width="110" height="30" as="geometry" />
        </mxCell>
        <mxCell id="Jiz-GTdUpbyviJ1bqy-C-31" value="Доступно авторизованным" style="text;html=1;align=center;verticalAlign=middle;resizable=0;points=[];autosize=1;strokeColor=none;fillColor=none;" vertex="1" parent="1">
          <mxGeometry x="480" y="470" width="170" height="30" as="geometry" />
        </mxCell>
        <mxCell id="Jiz-GTdUpbyviJ1bqy-C-43" value="Авторизация с отправкой кода подтверждения на почту" style="ellipse;whiteSpace=wrap;html=1;" vertex="1" parent="1">
          <mxGeometry x="20" y="40" width="180" height="100" as="geometry" />
        </mxCell>
        <mxCell id="Jiz-GTdUpbyviJ1bqy-C-51" style="edgeStyle=orthogonalEdgeStyle;rounded=0;orthogonalLoop=1;jettySize=auto;html=1;entryX=1;entryY=0.25;entryDx=0;entryDy=0;" edge="1" parent="1" source="Jiz-GTdUpbyviJ1bqy-C-1" target="Jiz-GTdUpbyviJ1bqy-C-1">
          <mxGeometry relative="1" as="geometry">
            <Array as="points">
              <mxPoint x="310" y="110" />
              <mxPoint x="710" y="110" />
              <mxPoint x="710" y="140" />
            </Array>
          </mxGeometry>
        </mxCell>
        <mxCell id="Jiz-GTdUpbyviJ1bqy-C-52" value="Уведомление по почте о подтверждении отклика" style="edgeLabel;html=1;align=center;verticalAlign=middle;resizable=0;points=[];" vertex="1" connectable="0" parent="Jiz-GTdUpbyviJ1bqy-C-51">
          <mxGeometry x="-0.2731" y="2" relative="1" as="geometry">
            <mxPoint x="-75" as="offset" />
          </mxGeometry>
        </mxCell>
      </root>
    </mxGraphModel>
  </diagram>
</mxfile>
